<?xml version="1.0" encoding="UTF-8" standalone="no"?>
<!-- Created with Inkscape (http://www.inkscape.org/) -->

<svg
   width="210mm"
   height="210mm"
   viewBox="0 0 210 210"
   version="1.1"
   id="svg1"
   xml:space="preserve"
   inkscape:version="1.4 (86a8ad7, 2024-10-11)"
   sodipodi:docname="tibslab_centered_log.svg"
   xmlns:inkscape="http://www.inkscape.org/namespaces/inkscape"
   xmlns:sodipodi="http://sodipodi.sourceforge.net/DTD/sodipodi-0.dtd"
   xmlns="http://www.w3.org/2000/svg"
   xmlns:svg="http://www.w3.org/2000/svg"><sodipodi:namedview
     id="namedview1"
     pagecolor="#ffffff"
     bordercolor="#000000"
     borderopacity="0.25"
     inkscape:showpageshadow="2"
     inkscape:pageopacity="0.0"
     inkscape:pagecheckerboard="0"
     inkscape:deskcolor="#d1d1d1"
     inkscape:document-units="mm"
     showguides="true"
     showgrid="true"
     inkscape:zoom="0.70710678"
     inkscape:cx="596.79812"
     inkscape:cy="563.56411"
     inkscape:window-width="2560"
     inkscape:window-height="1369"
     inkscape:window-x="2552"
     inkscape:window-y="-8"
     inkscape:window-maximized="1"
     inkscape:current-layer="layer5"><inkscape:grid
       id="grid16"
       units="mm"
       originx="0"
       originy="0"
       spacingx="0.99999998"
       spacingy="1"
       empcolor="#0099e5"
       empopacity="0.30196078"
       color="#0099e5"
       opacity="0.14901961"
       empspacing="5"
       enabled="true"
       visible="true" /></sodipodi:namedview><defs
     id="defs1" /><g
     inkscape:groupmode="layer"
     id="layer5"
     inkscape:label="Logo"
     transform="translate(3.309266,40.417477)"
     style="display:inline;opacity:1"><g
       inkscape:groupmode="layer"
       id="layer3"
       inkscape:label="Shield"
       style="display:inline;opacity:1;fill:#2e4453;fill-opacity:1"><path
         id="path7"
         style="display:inline;fill:#2e4453;fill-opacity:1;stroke-width:0.264835"
         d="M 101.68992,-2.3539645 101.87027,131.51901 C 159.27681,110.60415 157.9268,66.160199 157.9268,66.160199 l -0.0899,-49.086925 z m 0,0 -56.146958,19.4272375 -0.08992,49.086926 c 0,0 -0.989301,44.443951 56.417228,65.358811 z"
         sodipodi:nodetypes="cccccccccc" /></g><g
       inkscape:groupmode="layer"
       id="layer4"
       inkscape:label="Lock"
       style="display:inline;opacity:1;fill:#f9f9f9"><path
         id="rect16"
         style="display:inline;fill:#f9f9f9;fill-opacity:1;stroke-width:0.264583"
         d="M 102.05815,10.418964 A 22.489,22.489 0 0 0 79.569089,32.90803 v 9.988021 h -5.207434 c -4.775944,0 -8.621179,3.844719 -8.621179,8.620662 v 39.858556 c 0,4.775949 3.845235,8.62066 8.621179,8.62066 h 54.658675 c 4.77594,0 8.62066,-3.844711 8.62066,-8.62066 V 51.516713 c 0,-4.775943 -3.84472,-8.620662 -8.62066,-8.620662 h -4.4726 V 32.90803 h -5.2e-4 A 22.489,22.489 0 0 0 102.05815,10.418964 Z m -0.36742,8.511108 a 14.432206,14.050521 0 0 1 14.43219,14.050306 v 9.8826 H 87.258542 v -9.8826 A 14.432206,14.050521 0 0 1 101.69073,18.930072 Z m 0,43.015466 a 5,4.9872562 0 0 1 4.99969,4.987301 5,4.9872562 0 0 1 -3.00395,4.56716 l 2.00453,5.49889 c 0,0 6e-5,0.99735 -0.99994,0.99735 h -3.00033 -2.999811 c -1.000001,0 -0.999939,-0.99735 -0.999939,-0.99735 l 2.004529,-5.49889 a 5,4.9872562 0 0 1 -3.004468,-4.56716 5,4.9872562 0 0 1 4.999689,-4.987301 z" /></g><g
       inkscape:groupmode="layer"
       id="layer6"
       inkscape:label="Laptop"
       transform="translate(2.1908625,-1.984375)"
       style="opacity:1;fill:#2a3f4e;fill-opacity:1"><path
         id="rect20"
         style="display:inline;fill:#2e4453;fill-opacity:1;stroke-width:0.264583"
         d="m 76.000012,54.999929 c -1.662002,0 -2.999817,1.33781 -2.999817,2.99982 v 28.400849 l -3.029272,4.20284 a 4.3524875,4.3524875 0 0 0 3.530534,6.89726 l 25.998413,0.002 25.99841,-0.002 a 4.3524875,4.3524875 0 0 0 3.53054,-6.89726 l -3.02876,-4.20233 v -28.40136 c 0,-1.662009 -1.33781,-2.999819 -2.99982,-2.999819 h -19.63239 -3.86798 z m 1.500167,4.49998 h 43.999901 v 25.99997 H 77.500179 Z m 15.690515,31.4415 h 12.618356 c 0.6596,0 1.19062,0.53102 1.19062,1.19062 v 0.17725 c 0,0.65961 -0.53102,1.19063 -1.19062,1.19063 H 93.190694 c -0.659606,0 -1.190625,-0.53102 -1.190625,-1.19063 v -0.17725 c 0,-0.6596 0.531019,-1.19062 1.190625,-1.19062 z" /></g></g><g
     inkscape:groupmode="layer"
     id="layer7"
     inkscape:label="Text"
     style="display:none"><path
       d="m 49.359059,166.43887 h -10.08036 v 24.87879 h -3.751714 v -24.87879 h -10.08036 v -3.33485 h 23.912434 z m 7.332895,0.17053 h -4.016986 v -3.69486 h 4.016986 z m -0.227376,24.70826 h -3.562233 v -21.16497 h 3.562233 z M 82.13918,180.57412 q 0,2.65272 -0.757921,4.7749 -0.738974,2.12218 -2.008493,3.56224 -1.345312,1.49689 -2.955896,2.25481 -1.610584,0.73898 -3.543284,0.73898 -1.800065,0 -3.145376,-0.43581 -1.345311,-0.41686 -2.652727,-1.13688 l -0.227376,0.9853 H 63.513251 V 161.8345 h 3.562232 v 10.53511 q 1.496896,-1.23162 3.183272,-2.00849 1.686376,-0.79582 3.78961,-0.79582 3.751713,0 5.91179,2.8801 2.179025,2.88011 2.179025,8.12872 z m -3.675921,0.0947 q 0,-3.78961 -1.250571,-5.74126 -1.250571,-1.9706 -4.035934,-1.9706 -1.553739,0 -3.145375,0.68213 -1.591636,0.66318 -2.955896,1.72427 v 12.12675 q 1.515844,0.68213 2.595883,0.9474 1.098986,0.26528 2.482194,0.26528 2.955895,0 4.623323,-1.9327 1.686376,-1.95165 1.686376,-6.10127 z M 91.499516,161.8345 90.68475,172.80542 H 88.107815 L 87.293049,161.8345 Z m 21.733404,23.38189 q 0,2.89905 -2.4064,4.75596 -2.38745,1.8569 -6.53707,1.8569 -2.34956,0 -4.320158,-0.54949 -1.951649,-0.56844 -3.278012,-1.23162 v -3.99804 h 0.18948 q 1.686376,1.26952 3.75171,2.02744 2.06534,0.73898 3.96015,0.73898 2.34955,0 3.67592,-0.75793 1.32636,-0.75792 1.32636,-2.38745 0,-1.25057 -0.72003,-1.89481 -0.72002,-0.64423 -2.76641,-1.09898 -0.75792,-0.17053 -1.98955,-0.39791 -1.21267,-0.22738 -2.21692,-0.49265 -2.78536,-0.73897 -3.960139,-2.16008 -1.155831,-1.44005 -1.155831,-3.52433 0,-1.30742 0.530545,-2.46325 0.549494,-1.15583 1.64848,-2.06534 1.061095,-0.89056 2.690625,-1.40215 1.64848,-0.53055 3.67592,-0.53055 1.8948,0 3.8275,0.4737 1.95165,0.45476 3.24012,1.11794 v 3.80856 h -0.18948 q -1.36426,-1.00425 -3.31591,-1.68638 -1.95165,-0.70108 -3.8275,-0.70108 -1.95165,0 -3.29696,0.75792 -1.34532,0.73898 -1.34532,2.21692 0,1.30742 0.81477,1.9706 0.79582,0.66318 2.57694,1.08004 0.98529,0.22738 2.19797,0.45475 1.23162,0.22738 2.04639,0.41686 2.48219,0.56844 3.8275,1.95165 1.34531,1.40215 1.34531,3.71382 z m 22.33975,6.10127 h -3.56223 V 161.8345 h 3.56223 z m 23.49558,0 h -3.54328 v -2.25482 q -0.4737,0.32212 -1.28847,0.90951 -0.79582,0.56844 -1.55374,0.9095 -0.89056,0.43581 -2.04639,0.72003 -1.15583,0.30317 -2.70957,0.30317 -2.86115,0 -4.8507,-1.89481 -1.98954,-1.8948 -1.98954,-4.83175 0,-2.4064 1.02319,-3.88435 1.04214,-1.49689 2.9559,-2.34956 1.9327,-0.85266 4.64227,-1.15583 2.70957,-0.30317 5.81705,-0.45475 v -0.54949 q 0,-1.21268 -0.43581,-2.0085 -0.41685,-0.79582 -1.21267,-1.25057 -0.75792,-0.4358 -1.81902,-0.58739 -1.06109,-0.15158 -2.21692,-0.15158 -1.40215,0 -3.12642,0.37896 -1.72428,0.36001 -3.56224,1.06109 h -0.18948 v -3.61908 q 1.04215,-0.28422 3.01274,-0.62528 1.9706,-0.34107 3.88435,-0.34107 2.23587,0 3.88435,0.37896 1.66743,0.36002 2.8801,1.25057 1.19373,0.87161 1.81902,2.25482 0.62528,1.38321 0.62528,3.4296 z m -3.54328,-5.21072 v -5.89284 q -1.62953,0.0947 -3.84646,0.28422 -2.19797,0.18948 -3.48644,0.5495 -1.53479,0.4358 -2.48219,1.36426 -0.9474,0.9095 -0.9474,2.52009 0,1.81901 1.09898,2.74746 1.09899,0.90951 3.35381,0.90951 1.87585,0 3.42959,-0.72003 1.55374,-0.73897 2.88011,-1.76217 z m 29.02841,-5.53282 q 0,2.65272 -0.75793,4.7749 -0.73897,2.12218 -2.00849,3.56224 -1.34531,1.49689 -2.95589,2.25481 -1.61059,0.73898 -3.54329,0.73898 -1.80006,0 -3.14537,-0.43581 -1.34532,-0.41686 -2.65273,-1.13688 l -0.22738,0.9853 h -3.33485 V 161.8345 h 3.56223 v 10.53511 q 1.4969,-1.23162 3.18327,-2.00849 1.68638,-0.79582 3.78961,-0.79582 3.75171,0 5.91179,2.8801 2.17903,2.88011 2.17903,8.12872 z m -3.67592,0.0947 q 0,-3.78961 -1.25058,-5.74126 -1.25057,-1.9706 -4.03593,-1.9706 -1.55374,0 -3.14538,0.68213 -1.59163,0.66318 -2.95589,1.72427 v 12.12675 q 1.51584,0.68213 2.59588,0.9474 1.09899,0.26528 2.4822,0.26528 2.95589,0 4.62332,-1.9327 1.68638,-1.95165 1.68638,-6.10127 z"
       id="path1"
       style="font-size:38.8056px;display:inline;fill:#2e4453;stroke-width:0.264583"
       aria-label="Tib's lab"
       inkscape:label="Tib's lab" /></g></svg>
